<svg xmlns="http://www.w3.org/2000/svg" viewBox="0 0 820 600"><defs><linearGradient id="g" x1="0" x2="1"><stop stop-color="#0b4662"/><stop offset="1" stop-color="#6ed1ec"/></linearGradient><filter id="s"><feDropShadow dx="0" dy="18" stdDeviation="20" flood-opacity=".20"/></filter></defs><rect width="820" height="600" rx="48" fill="#e8f6fb"/><circle cx="150" cy="120" r="110" fill="#b9e9f7" opacity=".7"/><circle cx="680" cy="470" r="150" fill="#9fdbef" opacity=".45"/><g filter="url(#s)"><rect x="90" y="110" width="640" height="390" rx="28" fill="#fff"/><rect x="90" y="110" width="640" height="78" rx="28" fill="url(#g)"/><circle cx="136" cy="150" r="11" fill="#ff6f61"/><circle cx="170" cy="150" r="11" fill="#ffd166"/><circle cx="204" cy="150" r="11" fill="#5de0a7"/><rect x="130" y="230" width="160" height="95" rx="18" fill="#eaf8fc"/><rect x="330" y="230" width="160" height="95" rx="18" fill="#eaf8fc"/><rect x="530" y="230" width="120" height="95" rx="18" fill="#eaf8fc"/><path d="M135 428 C210 355 260 405 330 330 C395 260 462 360 525 285 C573 228 625 250 680 210" fill="none" stroke="#0b4662" stroke-width="14" stroke-linecap="round"/><path d="M135 450 C210 400 274 435 340 388 C410 337 465 430 532 370 C595 314 628 338 680 295" fill="none" stroke="#ffb703" stroke-width="10" stroke-linecap="round" opacity=".9"/><circle cx="525" cy="285" r="18" fill="#ff6f61"/><circle cx="680" cy="210" r="18" fill="#5de0a7"/></g></svg>