<svg xmlns="http://www.w3.org/2000/svg" viewBox="0 0 800 500"><rect width="800" height="500" fill="#0b4662"/><g stroke="#6ed1ec" opacity=".22"><path d="M0 100h800M0 200h800M0 300h800M0 400h800M100 0v500M200 0v500M300 0v500M400 0v500M500 0v500M600 0v500M700 0v500"/></g><path d="M50 370 L140 300 L210 330 L300 210 L390 250 L470 160 L565 190 L650 105 L740 135" fill="none" stroke="#6ed1ec" stroke-width="12" stroke-linecap="round"/><path d="M50 415 L140 385 L210 390 L300 350 L390 330 L470 290 L565 310 L650 260 L740 250" fill="none" stroke="#ff6f61" stroke-width="10" stroke-linecap="round"/><circle cx="650" cy="105" r="18" fill="#ffb703"/></svg>